<?xml version="1.0" encoding="UTF-8"?>
<!DOCTYPE svg PUBLIC "-//W3C//DTD SVG 1.1//EN" "http://www.w3.org/Graphics/SVG/1.1/DTD/svg11.dtd">
<!-- Creator: CorelDRAW 2018 (64-Bit) -->
<svg xmlns="http://www.w3.org/2000/svg" xml:space="preserve" width="876px" height="146px" version="1.1" style="shape-rendering:geometricPrecision; text-rendering:geometricPrecision; image-rendering:optimizeQuality; fill-rule:evenodd; clip-rule:evenodd"
viewBox="0 0 347.09 57.79"
 xmlns:xlink="http://www.w3.org/1999/xlink">
 <defs>
  <style type="text/css">
   <![CDATA[
    .fil2 {fill:none;fill-rule:nonzero}
    .fil1 {fill:#09263A;fill-rule:nonzero}
    .fil0 {fill:#49B2F7;fill-rule:nonzero}
    .fil4 {fill:#FBD22E;fill-rule:nonzero}
    .fil3 {fill:white;fill-rule:nonzero}
   ]]>
  </style>
 </defs>
 <g id="Слой_x0020_1">
  <metadata id="CorelCorpID_0Corel-Layer"/>
  <g id="_2624960514016">
   <path class="fil0" d="M85.42 33.49l-6.34 0 0 -27.74 6.34 0 0 10.62 3.49 0c0.69,-3.33 2.23,-6 4.64,-8 2.4,-2.07 5.4,-3.1 8.99,-3.1 4.28,0 7.74,1.31 10.39,3.93 2.64,2.56 3.96,6.03 3.96,10.42 0,4.17 -1.34,7.62 -4,10.34 -2.67,2.67 -6.12,4 -10.35,4 -3.48,0 -6.51,-1.04 -9.07,-3.13 -2.56,-2.08 -4.12,-4.92 -4.68,-8.52l-3.37 0 0 11.18zm9.91 -13.87c0,2.38 0.73,4.37 2.18,5.98 1.45,1.61 3.2,2.42 5.23,2.42 2.46,0 4.31,-0.75 5.55,-2.26 1.24,-1.5 1.86,-3.55 1.86,-6.14 0,-2.54 -0.67,-4.57 -2.02,-6.1 -1.35,-1.54 -3.14,-2.3 -5.39,-2.3 -2.14,0 -3.91,0.78 -5.31,2.34 -1.4,1.56 -2.1,3.58 -2.1,6.06z"/>
   <path class="fil1" d="M125.21 33.41l0 -27.58c3.09,-0.16 5.89,-0.24 8.4,-0.24 3.07,0 5.38,0.62 6.96,1.84 1.57,1.23 2.35,2.92 2.35,5.06 0,2.72 -1.05,4.78 -3.17,6.18l0 0.08c1.19,0.45 2.15,1.21 2.88,2.3 0.72,1.08 1.09,2.43 1.09,4.04 0,2.77 -0.98,4.9 -2.94,6.38 -1.92,1.45 -4.46,2.18 -7.6,2.18 -3.68,0 -6.33,-0.08 -7.97,-0.24zm8.8 -11.14l-2.46 0 0 5.2c0.58,0.15 1.3,0.23 2.14,0.23 2.46,0 3.69,-0.97 3.69,-2.93 0,-1.66 -1.13,-2.5 -3.37,-2.5zm-0.48 -10.73c-0.47,0 -1.13,0.05 -1.98,0.15l0 5.04 2.1 0c1.96,0 2.93,-0.9 2.93,-2.7 0,-0.76 -0.29,-1.37 -0.87,-1.82 -0.58,-0.45 -1.31,-0.67 -2.18,-0.67zm37.13 4.71l-12.28 17.24 -5.55 0 0 -27.74 6.34 0 0 17.24 12.29 -17.24 5.54 0 0 27.74 -6.34 0 0 -17.24zm38.56 17.24l-6.34 0 0 -21.8 -6.1 0 -0.6 5.23c-0.55,4.81 -1.34,8.49 -2.35,11.04 -1.02,2.55 -2.25,4.21 -3.69,4.97 -1.44,0.77 -3.31,0.96 -5.61,0.56l0.12 -6.34c0.58,0.1 1.07,0.1 1.45,-0.02 0.38,-0.12 0.8,-0.44 1.25,-0.97 0.45,-0.56 0.86,-1.39 1.22,-2.5 0.82,-2.38 1.44,-6.5 1.87,-12.36l0.39 -5.55 18.39 0 0 27.74zm29.48 -7.49l2.42 4.75c-0.84,0.96 -2.1,1.74 -3.76,2.34 -1.64,0.58 -3.4,0.87 -5.27,0.87 -4.31,0 -7.81,-1.3 -10.51,-3.92 -2.69,-2.67 -4.04,-6.14 -4.04,-10.42 0,-4.17 1.27,-7.61 3.81,-10.3 2.53,-2.7 6.1,-4.05 10.7,-4.05 1.74,0 3.36,0.27 4.87,0.8 1.51,0.53 2.71,1.23 3.61,2.1l-2.82 4.75c-1.85,-1.13 -3.74,-1.7 -5.66,-1.7 -2.25,0 -4.11,0.74 -5.59,2.22 -1.45,1.45 -2.18,3.51 -2.18,6.18 0,2.43 0.78,4.45 2.34,6.06 1.56,1.56 3.58,2.34 6.06,2.34 2.22,0 4.23,-0.67 6.02,-2.02z"/>
  </g>
  <path class="fil1" d="M80.28 55.78l-1 0 3.48 -8.14 0.85 0 3.47 8.14 -1.05 0 -1.04 -2.45 -3.68 0 -1.03 2.45zm4.33 -3.38l-1.46 -3.45 -1.45 3.45 2.91 0zm5.88 0.27l0 3.11 -0.98 0 0 -8.09c0.32,0 0.67,0 1.03,-0.01 0.36,-0.01 0.72,-0.01 1.09,-0.01 1.06,0 1.82,0.23 2.28,0.71 0.47,0.47 0.71,1.07 0.71,1.79 0,0.71 -0.26,1.31 -0.76,1.81 -0.5,0.49 -1.21,0.74 -2.15,0.74 -0.5,0 -0.9,-0.02 -1.22,-0.05zm1.23 -4.08c-0.14,0 -0.55,0.01 -1.23,0.02l0 3.12c0.49,0.04 0.88,0.06 1.18,0.06 0.6,0 1.06,-0.14 1.4,-0.43 0.34,-0.29 0.51,-0.69 0.51,-1.2 0,-0.5 -0.16,-0.89 -0.47,-1.16 -0.31,-0.27 -0.78,-0.41 -1.39,-0.41zm10.41 7.19l-4.68 0 0 -8.09 4.57 0 0 0.92 -3.59 0 0 2.62 3.24 0 0 0.92 -3.24 0 0 2.7 3.7 0 0 0.93zm9.42 0l-0.98 0 0 -3.66 -4.45 0 0 3.66 -0.98 0 0 -8.09 0.98 0 0 3.5 4.45 0 0 -3.5 0.98 0 0 8.09zm3.35 1.5l-0.92 0 0 -2.43 0.86 0c0.26,-0.32 0.52,-0.95 0.79,-1.88 0.28,-0.93 0.46,-2.15 0.54,-3.66l0.08 -1.62 4.77 0 0 7.16 1.09 0 0 2.43 -0.92 0 0 -1.5 -6.29 0 0 1.5zm2.3 -8.67l-0.1 1.45c-0.08,1.19 -0.24,2.24 -0.5,3.14 -0.24,0.85 -0.46,1.4 -0.67,1.65l4.1 0 0 -6.24 -2.83 0zm7.47 7.17l-1 0 3.48 -8.14 0.85 0 3.48 8.14 -1.06 0 -1.04 -2.45 -3.68 0 -1.03 2.45zm4.33 -3.38l-1.45 -3.45 -1.46 3.45 2.91 0zm7.98 3.38l-1 0 3.48 -8.14 0.85 0 3.48 8.14 -1.06 0 -1.04 -2.45 -3.68 0 -1.03 2.45zm4.33 -3.38l-1.45 -3.45 -1.46 3.45 2.91 0zm4.9 3.37l0 -8.07c1.07,-0.03 1.81,-0.05 2.22,-0.05 0.88,0 1.53,0.18 1.96,0.53 0.43,0.35 0.64,0.84 0.64,1.47 0,0.47 -0.12,0.87 -0.37,1.18 -0.24,0.32 -0.58,0.55 -1.02,0.7l0 0.02c0.53,0.08 0.94,0.29 1.24,0.62 0.29,0.33 0.44,0.77 0.44,1.3 0,0.77 -0.26,1.35 -0.79,1.75 -0.52,0.4 -1.24,0.59 -2.15,0.59 -0.88,0 -1.61,-0.01 -2.17,-0.04zm2.29 -3.68l-1.31 0 0 2.75c0.32,0.03 0.74,0.05 1.25,0.05 0.61,0 1.08,-0.13 1.41,-0.38 0.32,-0.25 0.49,-0.61 0.49,-1.1 0,-0.42 -0.16,-0.75 -0.48,-0.98 -0.32,-0.22 -0.77,-0.34 -1.36,-0.34zm-0.09 -3.51c-0.23,0 -0.64,0.01 -1.22,0.03l0 2.62 1.3 0c0.45,0 0.83,-0.13 1.12,-0.37 0.29,-0.24 0.44,-0.57 0.44,-0.99 0,-0.86 -0.55,-1.29 -1.64,-1.29zm7.71 0.03l-2.83 0 0 -0.92 6.64 0 0 0.92 -2.83 0 0 7.17 -0.98 0 0 -7.17zm5.16 3.12c0,-1.17 0.39,-2.15 1.17,-2.95 0.78,-0.81 1.76,-1.21 2.96,-1.21 1.19,0 2.17,0.39 2.95,1.17 0.78,0.78 1.17,1.78 1.17,2.99 0,1.19 -0.39,2.18 -1.17,2.99 -0.79,0.78 -1.77,1.18 -2.95,1.18 -1.18,0 -2.17,-0.39 -2.96,-1.17 -0.78,-0.78 -1.17,-1.78 -1.17,-3zm1.04 0c0,0.91 0.3,1.68 0.89,2.32 0.6,0.61 1.33,0.92 2.2,0.92 0.91,0 1.65,-0.31 2.22,-0.92 0.58,-0.62 0.86,-1.39 0.86,-2.32 0,-0.92 -0.29,-1.69 -0.89,-2.31 -0.59,-0.61 -1.32,-0.92 -2.19,-0.92 -0.89,0 -1.62,0.3 -2.21,0.91 -0.58,0.61 -0.88,1.38 -0.88,2.32zm13.05 5.55l-0.92 0 0 -2.43 0.86 0c0.26,-0.32 0.52,-0.95 0.79,-1.88 0.28,-0.93 0.46,-2.15 0.54,-3.66l0.08 -1.62 4.77 0 0 7.16 1.09 0 0 2.43 -0.92 0 0 -1.5 -6.29 0 0 1.5zm2.3 -8.67l-0.1 1.45c-0.08,1.19 -0.25,2.24 -0.5,3.14 -0.24,0.85 -0.46,1.4 -0.67,1.65l4.1 0 0 -6.24 -2.83 0zm13.41 7.17l-0.98 0 0 -7.17 -2.94 0 -0.14 1.53c-0.09,1 -0.21,1.86 -0.36,2.57 -0.14,0.71 -0.3,1.27 -0.47,1.68 -0.17,0.41 -0.37,0.73 -0.6,0.95 -0.22,0.22 -0.44,0.36 -0.66,0.42 -0.22,0.05 -0.46,0.06 -0.74,0.02l0.01 -0.98c0.16,0.02 0.3,0.01 0.42,-0.04 0.11,-0.05 0.24,-0.17 0.39,-0.36 0.16,-0.19 0.31,-0.48 0.44,-0.86 0.31,-0.87 0.53,-2.28 0.67,-4.23l0.12 -1.62 4.84 0 0 8.09zm8.24 0l-0.98 0 0 -3.01 -1.52 0 -2.09 3.01 -1.11 0 2.24 -3.18c-0.47,-0.19 -0.86,-0.49 -1.15,-0.88 -0.29,-0.4 -0.44,-0.86 -0.44,-1.38 0,-0.78 0.26,-1.42 0.8,-1.92 0.53,-0.51 1.31,-0.77 2.35,-0.77 0.03,0 0.36,0.01 0.97,0.03 0.31,0.01 0.62,0.01 0.93,0.01l0 8.09zm-2.61 -3.93l1.63 0 0 -3.24c-0.53,-0.02 -0.9,-0.03 -1.1,-0.03 -0.6,0 -1.07,0.16 -1.42,0.47 -0.34,0.31 -0.51,0.72 -0.51,1.23 0,0.41 0.14,0.76 0.42,1.05 0.27,0.29 0.6,0.47 0.98,0.52zm10.93 -3.24l-2.83 0 0 -0.92 6.64 0 0 0.92 -2.83 0 0 7.17 -0.98 0 0 -7.17zm5.34 7.17l-0.99 0 3.48 -8.14 0.84 0 3.48 8.14 -1.05 0 -1.04 -2.45 -3.69 0 -1.03 2.45zm4.33 -3.38l-1.45 -3.45 -1.46 3.45 2.91 0zm9.63 -4.71l1.19 0 -3.6 3.8 3.79 4.29 -1.26 0 -3.67 -4.22 3.55 -3.87zm-3.74 8.09l-0.99 0 0 -8.09 0.99 0 0 8.09zm12.75 -1.53l0.39 0.74c-0.27,0.28 -0.64,0.5 -1.1,0.66 -0.46,0.16 -0.95,0.25 -1.46,0.25 -1.21,0 -2.2,-0.38 -2.97,-1.14 -0.75,-0.77 -1.13,-1.78 -1.13,-3.03 0,-1.2 0.36,-2.19 1.09,-2.97 0.72,-0.79 1.7,-1.19 2.94,-1.19 1.03,0 1.85,0.27 2.47,0.79l-0.45 0.74c-0.54,-0.4 -1.21,-0.6 -2,-0.6 -0.88,0 -1.6,0.3 -2.17,0.9 -0.56,0.59 -0.84,1.37 -0.84,2.33 0,0.97 0.29,1.75 0.87,2.35 0.59,0.59 1.35,0.89 2.29,0.89 0.78,0 1.47,-0.24 2.07,-0.72zm8.77 -4.94l-4.91 6.47 -0.87 0 0 -8.09 0.98 0 0 6.47 4.91 -6.47 0.87 0 0 8.09 -0.98 0 0 -6.47zm13.92 6.47l-0.98 0 0 -7.17 -4.39 0 0 7.17 -0.98 0 0 -8.09 6.35 0 0 8.09zm2.84 -4.05c0,-1.17 0.38,-2.15 1.16,-2.95 0.78,-0.81 1.77,-1.21 2.96,-1.21 1.19,0 2.17,0.39 2.95,1.17 0.79,0.78 1.18,1.78 1.18,2.99 0,1.19 -0.39,2.18 -1.18,2.99 -0.79,0.78 -1.77,1.18 -2.95,1.18 -1.18,0 -2.16,-0.39 -2.96,-1.17 -0.78,-0.78 -1.16,-1.78 -1.16,-3zm1.04 0c0,0.91 0.29,1.68 0.89,2.32 0.59,0.61 1.32,0.92 2.19,0.92 0.91,0 1.65,-0.31 2.22,-0.92 0.58,-0.62 0.87,-1.39 0.87,-2.32 0,-0.92 -0.3,-1.69 -0.89,-2.31 -0.6,-0.61 -1.33,-0.92 -2.2,-0.92 -0.88,0 -1.62,0.3 -2.21,0.91 -0.58,0.61 -0.87,1.38 -0.87,2.32zm12.59 1.33l-2.76 0 0 -0.86 2.76 0 0 0.86zm9.54 2.72l-0.98 0 0 -3.66 -4.45 0 0 3.66 -0.99 0 0 -8.09 0.99 0 0 3.5 4.45 0 0 -3.5 0.98 0 0 8.09zm2.83 -4.05c0,-1.17 0.39,-2.15 1.17,-2.95 0.78,-0.81 1.76,-1.21 2.96,-1.21 1.18,0 2.17,0.39 2.94,1.17 0.79,0.78 1.18,1.78 1.18,2.99 0,1.19 -0.39,2.18 -1.18,2.99 -0.78,0.78 -1.77,1.18 -2.94,1.18 -1.18,0 -2.17,-0.39 -2.96,-1.17 -0.78,-0.78 -1.17,-1.78 -1.17,-3zm1.04 0c0,0.91 0.3,1.68 0.89,2.32 0.59,0.61 1.33,0.92 2.2,0.92 0.91,0 1.64,-0.31 2.22,-0.92 0.57,-0.62 0.86,-1.39 0.86,-2.32 0,-0.92 -0.29,-1.69 -0.89,-2.31 -0.59,-0.61 -1.32,-0.92 -2.19,-0.92 -0.89,0 -1.63,0.3 -2.21,0.91 -0.59,0.61 -0.88,1.38 -0.88,2.32zm10.04 4.04l0 -8.07c1.07,-0.03 1.81,-0.05 2.22,-0.05 0.88,0 1.53,0.18 1.96,0.53 0.43,0.35 0.64,0.84 0.64,1.47 0,0.47 -0.12,0.87 -0.37,1.18 -0.24,0.32 -0.58,0.55 -1.01,0.7l0 0.02c0.52,0.08 0.93,0.29 1.23,0.62 0.29,0.33 0.44,0.77 0.44,1.3 0,0.77 -0.26,1.35 -0.78,1.75 -0.53,0.4 -1.24,0.59 -2.15,0.59 -0.89,0 -1.61,-0.01 -2.18,-0.04zm2.29 -3.68l-1.3 0 0 2.75c0.31,0.03 0.73,0.05 1.24,0.05 0.61,0 1.08,-0.13 1.41,-0.38 0.33,-0.25 0.49,-0.61 0.49,-1.1 0,-0.42 -0.16,-0.75 -0.48,-0.98 -0.32,-0.22 -0.77,-0.34 -1.36,-0.34zm-0.09 -3.51c-0.23,0 -0.64,0.01 -1.21,0.03l0 2.62 1.29 0c0.46,0 0.83,-0.13 1.12,-0.37 0.29,-0.24 0.44,-0.57 0.44,-0.99 0,-0.86 -0.55,-1.29 -1.64,-1.29zm5.34 3.15c0,-1.17 0.39,-2.15 1.17,-2.95 0.77,-0.81 1.76,-1.21 2.96,-1.21 1.18,0 2.16,0.39 2.94,1.17 0.79,0.78 1.18,1.78 1.18,2.99 0,1.19 -0.39,2.18 -1.18,2.99 -0.78,0.78 -1.77,1.18 -2.94,1.18 -1.18,0 -2.17,-0.39 -2.96,-1.17 -0.78,-0.78 -1.17,-1.78 -1.17,-3zm1.04 0c0,0.91 0.3,1.68 0.89,2.32 0.59,0.61 1.32,0.92 2.2,0.92 0.9,0 1.64,-0.31 2.21,-0.92 0.58,-0.62 0.87,-1.39 0.87,-2.32 0,-0.92 -0.3,-1.69 -0.89,-2.31 -0.59,-0.61 -1.32,-0.92 -2.19,-0.92 -0.89,0 -1.63,0.3 -2.21,0.91 -0.59,0.61 -0.88,1.38 -0.88,2.32zm11.03 4.05l-0.99 0 0 -8.09 1 0 3.04 4.15 2.91 -4.15 0.94 0 0 8.09 -0.99 0 0 -6.54 -2.86 4.02 -0.15 0 -2.9 -3.99 0 6.51zm15.68 -8.09l0.99 0 -2.79 6.24c-0.29,0.65 -0.59,1.12 -0.9,1.41 -0.31,0.29 -0.68,0.44 -1.12,0.44 -0.41,0 -0.74,-0.1 -0.98,-0.29l0.35 -0.83c0.2,0.14 0.41,0.21 0.62,0.21 0.4,0 0.73,-0.28 1,-0.82l0.14 -0.3 -3.67 -6.06 1.11 0 3.03 5.07 2.22 -5.07z"/>
  <g id="_2624960513568">
   <g>
    <g>
     <g>
      <path class="fil2" d="M16.24 19.81l30.27 0c1.67,0 3.02,1.36 3.02,3.03l0 16.79c0,10.03 -8.13,18.16 -18.16,18.16 -10.03,0 -18.16,-8.13 -18.16,-18.16l0 -16.79c0,-1.67 1.35,-3.03 3.03,-3.03z"/>
     </g>
     <path class="fil0" d="M31.37 57.79c-10.01,0 -18.16,-8.15 -18.16,-18.16l0 -14.83c0,-2.75 2.23,-4.99 4.98,-4.99l26.36 0c2.75,0 4.98,2.24 4.98,4.99l0 14.83c0,10.01 -8.14,18.16 -18.16,18.16zm-13.18 -33.02l0 0c-0.01,0 -0.03,0.01 -0.03,0.03l0 14.83c0,7.28 5.93,13.21 13.21,13.21 7.28,0 13.21,-5.93 13.21,-13.21l0 -14.83 -26.39 -0.03z"/>
    </g>
    <path class="fil3" d="M12.38 19.81l37.98 0c6.84,0 12.38,5.55 12.38,12.39 0,6.84 -5.54,12.38 -12.38,12.38l-37.98 0c-6.84,0 -12.38,-5.54 -12.38,-12.38 0,-6.84 5.54,-12.39 12.38,-12.39z"/>
    <g>
     <g>
      <path class="fil2" d="M31.58 0c10.17,0 18.42,8.25 18.42,18.42 0,0 0,0 0,0l0 14.23c0,0.67 -0.55,1.22 -1.23,1.22l-34.38 0c-0.68,0 -1.23,-0.55 -1.23,-1.22l0 -14.23c0,-10.17 8.24,-18.42 18.42,-18.42z"/>
     </g>
     <path class="fil0" d="M46.93 33.87l-30.7 0c-1.69,0 -3.07,-1.37 -3.07,-3.06l0 -12.39c0,-10.16 8.26,-18.42 18.42,-18.42 10.15,0 18.42,8.26 18.42,18.42l0 12.38c0,1.7 -1.38,3.07 -3.07,3.07zm-28.82 -4.95l0 0 26.93 0 0 -10.5c0,-7.42 -6.04,-13.47 -13.46,-13.47 -7.43,0 -13.47,6.05 -13.47,13.47l0 10.5z"/>
    </g>
    <polygon class="fil3" points="10.53,16.77 51.31,16.77 51.31,32.56 10.53,32.56 "/>
    <g>
     <g>
      <path class="fil2" d="M9.91 15.45l43.34 0c5.47,0 9.91,4.44 9.91,9.91l0 7.84c0,1.83 -1.48,3.31 -3.31,3.31l-56.55 0c-1.82,0 -3.3,-1.48 -3.3,-3.31l0 -7.84c0,-5.47 4.44,-9.91 9.91,-9.91z"/>
     </g>
     <path class="fil0" d="M59.85 36.51l-56.55 0c-1.82,0 -3.3,-1.49 -3.3,-3.31l0 -7.84c0,-5.46 4.44,-9.91 9.91,-9.91l43.34 0c5.46,0 9.91,4.45 9.91,9.91l0 7.84c0,1.82 -1.49,3.31 -3.31,3.31zm-54.9 -4.96l0 0 53.25 0 0 -6.19c0,-2.73 -2.22,-4.95 -4.95,-4.95l-43.34 0c-2.73,0 -4.96,2.22 -4.96,4.95l0 6.19z"/>
    </g>
    <g>
     <path class="fil3" d="M17.76 23.35c4.73,0 8.56,3.83 8.56,8.55 0,4.73 -3.83,8.55 -8.56,8.55 -4.72,0 -8.55,-3.82 -8.55,-8.55 0,-4.72 3.83,-8.55 8.55,-8.55z"/>
     <path class="fil0" d="M17.76 40.45c-4.71,0 -8.55,-3.83 -8.55,-8.55 0,-4.71 3.84,-8.55 8.55,-8.55 4.72,0 8.56,3.84 8.56,8.55 0,4.72 -3.84,8.55 -8.56,8.55zm0 -12.15l0 0c-1.98,0 -3.6,1.62 -3.6,3.6 0,1.99 1.62,3.6 3.6,3.6 1.99,0 3.6,-1.61 3.6,-3.6 0,-1.98 -1.61,-3.6 -3.6,-3.6z"/>
    </g>
    <g>
     <path class="fil3" d="M45.39 23.35c4.73,0 8.56,3.83 8.56,8.55 0,4.73 -3.83,8.55 -8.56,8.55 -4.72,0 -8.55,-3.82 -8.55,-8.55 0,-4.72 3.83,-8.55 8.55,-8.55z"/>
     <path class="fil0" d="M45.39 40.45c-4.71,0 -8.55,-3.83 -8.55,-8.55 0,-4.71 3.84,-8.55 8.55,-8.55 4.72,0 8.56,3.84 8.56,8.55 0,4.72 -3.84,8.55 -8.56,8.55zm0 -12.15l0 0c-1.98,0 -3.59,1.62 -3.59,3.6 0,1.99 1.61,3.6 3.59,3.6 1.99,0 3.6,-1.61 3.6,-3.6 0,-1.98 -1.61,-3.6 -3.6,-3.6z"/>
    </g>
   </g>
  </g>
  <path class="fil4" d="M254.96 1.37l76.01 0 16.12 18.58 -16.12 18.57 -76.01 0 0 -37.15zm38 0m46.07 9.29m0 18.58m-46.07 9.28m-38 -18.57"/>
  <path class="fil1" d="M270.88 16.58l-3.73 0 0 -1.22 8.76 0 0 1.22 -3.74 0 0 9.44 -1.29 0 0 -9.44zm7.04 9.44l-1.31 0 4.58 -10.72 1.11 0 4.59 10.72 -1.39 0 -1.37 -3.23 -4.86 0 -1.35 3.23zm5.71 -4.45l-1.92 -4.55 -1.92 4.55 3.84 0zm12.68 -6.21l1.57 0 -4.75 5.01 5 5.65 -1.66 0 -4.83 -5.56 4.67 -5.1zm-4.93 10.66l-1.29 0 0 -10.66 1.29 0 0 10.66zm16.8 -2.01l0.52 0.98c-0.36,0.36 -0.84,0.65 -1.45,0.86 -0.61,0.22 -1.25,0.32 -1.92,0.32 -1.59,0 -2.9,-0.49 -3.91,-1.49 -1,-1.01 -1.5,-2.34 -1.5,-3.99 0,-1.58 0.48,-2.89 1.44,-3.91 0.95,-1.05 2.25,-1.57 3.88,-1.57 1.35,0 2.43,0.34 3.24,1.03l-0.59 0.98c-0.71,-0.53 -1.59,-0.79 -2.63,-0.79 -1.16,0 -2.11,0.39 -2.85,1.18 -0.74,0.79 -1.11,1.81 -1.11,3.08 0,1.27 0.38,2.3 1.14,3.09 0.78,0.79 1.78,1.18 3.01,1.18 1.04,0 1.95,-0.32 2.73,-0.95zm11.56 -6.52l-6.47 8.53 -1.15 0 0 -10.66 1.3 0 0 8.53 6.47 -8.53 1.14 0 0 10.66 -1.29 0 0 -8.53z"/>
 </g>
</svg>
